<?xml version="1.0" encoding="UTF-8"?>
<svg id="Layer_1" data-name="Layer 1" xmlns="http://www.w3.org/2000/svg" viewBox="0 0 531 593">
  <defs>
    <style>
      .cls-1 {
        fill: #fff;
        stroke-width: 0px;
      }
    </style>
  </defs>
  <g>
    <path class="cls-1" d="M34.25,205.8c0-23.05,18.75-41.8,41.8-41.8h28.2v-43c0-1.65,1.35-3,3-3s3,1.35,3,3v43h237v-43c0-1.65,1.35-3,3-3s3,1.35,3,3v43h28.2c23.05,0,41.8,18.75,41.8,41.8v44.2H34.25v261.2V205.8Z"/>
    <path class="cls-1" d="M381.45,184c12.02,0,21.8,9.78,21.8,21.8v24.2H54.25v-24.2c0-12.02,9.78-21.8,21.8-21.8h305.4M350.25,98c-12.7,0-23,10.3-23,23v23h-197v-23c0-12.7-10.3-23-23-23s-23,10.3-23,23v23h-8.2c-34.13,0-61.8,27.67-61.8,61.8v305.4c0,34.13,27.67,61.8,61.8,61.8h305.4c34.13,0,61.8-27.67,61.8-61.8V205.8c0-34.13-27.67-61.8-61.8-61.8h-8.2v-23c0-12.7-10.3-23-23-23h0ZM76.05,533c-12.02,0-21.8-9.78-21.8-21.8v-241.2h349v241.2c0,12.02-9.78,21.8-21.8,21.8H76.05Z"/>
  </g>
  <g>
    <g>
      <g>
        <rect class="cls-1" x="117.97" y="341.48" width="20.52" height="20.52"/>
        <path class="cls-1" d="M147.45,321.48h-38.44c-6.1,0-11.04,4.94-11.04,11.04v38.44c0,6.1,4.94,11.04,11.04,11.04h38.44c6.1,0,11.04-4.94,11.04-11.04v-38.44c0-6.1-4.94-11.04-11.04-11.04h0Z"/>
      </g>
      <g>
        <rect class="cls-1" x="218.49" y="341.48" width="20.52" height="20.52"/>
        <path class="cls-1" d="M247.97,321.48h-38.44c-6.1,0-11.04,4.94-11.04,11.04v38.44c0,6.1,4.94,11.04,11.04,11.04h38.44c6.1,0,11.04-4.94,11.04-11.04v-38.44c0-6.1-4.94-11.04-11.04-11.04h0Z"/>
      </g>
      <g>
        <rect class="cls-1" x="319.01" y="341.48" width="20.52" height="20.52"/>
        <path class="cls-1" d="M348.49,321.48h-38.44c-6.1,0-11.04,4.94-11.04,11.04v38.44c0,6.1,4.94,11.04,11.04,11.04h38.44c6.1,0,11.04-4.94,11.04-11.04v-38.44c0-6.1-4.94-11.04-11.04-11.04h0Z"/>
      </g>
    </g>
    <g>
      <g>
        <rect class="cls-1" x="117.97" y="442" width="20.52" height="20.52"/>
        <path class="cls-1" d="M147.45,422h-38.44c-6.1,0-11.04,4.94-11.04,11.04v38.44c0,6.1,4.94,11.04,11.04,11.04h38.44c6.1,0,11.04-4.94,11.04-11.04v-38.44c0-6.1-4.94-11.04-11.04-11.04h0Z"/>
      </g>
      <g>
        <rect class="cls-1" x="218.49" y="442" width="20.52" height="20.52"/>
        <path class="cls-1" d="M247.97,422h-38.44c-6.1,0-11.04,4.94-11.04,11.04v38.44c0,6.1,4.94,11.04,11.04,11.04h38.44c6.1,0,11.04-4.94,11.04-11.04v-38.44c0-6.1-4.94-11.04-11.04-11.04h0Z"/>
      </g>
      <g>
        <rect class="cls-1" x="319.01" y="442" width="20.52" height="20.52"/>
        <path class="cls-1" d="M348.49,422h-38.44c-6.1,0-11.04,4.94-11.04,11.04v38.44c0,6.1,4.94,11.04,11.04,11.04h38.44c6.1,0,11.04-4.94,11.04-11.04v-38.44c0-6.1-4.94-11.04-11.04-11.04h0Z"/>
      </g>
    </g>
  </g>
  <path class="cls-1" d="M484,64.5c-44.5,12.29-54.46,22.25-66.75,66.75-12.29-44.5-22.25-54.46-66.75-66.75,44.5-12.29,54.46-22.25,66.75-66.75,12.29,44.5,22.25,54.46,66.75,66.75Z"/>
  <path class="cls-1" d="M530.5,156.5c-27.5,7.59-33.66,13.75-41.25,41.25-7.59-27.5-13.75-33.66-41.25-41.25,27.5-7.59,33.66-13.75,41.25-41.25,7.59,27.5,13.75,33.66,41.25,41.25Z"/>
</svg>