<?xml version="1.0" encoding="UTF-8"?>
<svg id="Layer_1" data-name="Layer 1" xmlns="http://www.w3.org/2000/svg" viewBox="0 0 1880 419">
  <defs>
    <style>
      .cls-1 {
        fill: #1e965c;
        stroke-width: 0px;
      }
    </style>
  </defs>
  <path class="cls-1" d="M612.26,58.9c-18.87,0-35.27,4.49-49.19,13.46-13.92,8.97-23.52,20.96-28.77,35.97h-2.78c-4.18-15.16-12.49-27.19-24.95-36.08-12.45-8.89-27.58-13.34-45.37-13.34s-32.57,4.41-45.25,13.23c-12.69,8.82-21.74,20.88-27.15,36.2h-3.25v-46.18h-67.99v259.43h71.7v-155.47c0-9.75,1.86-18.14,5.57-25.18,3.71-7.04,8.74-12.57,15.08-16.59,6.34-4.02,13.54-6.03,21.58-6.03,11.76,0,21.27,3.75,28.54,11.25,7.27,7.5,10.91,17.52,10.91,30.05v161.97h69.61v-158.26c0-13.46,3.67-24.33,11.02-32.6,7.35-8.27,17.52-12.41,30.51-12.41,11.45,0,21,3.56,28.66,10.67,7.66,7.12,11.49,17.95,11.49,32.49v160.11h71.93v-174.5c0-28.15-7.62-49.89-22.86-65.21-15.24-15.32-34.92-22.97-59.06-22.97Z"/>
  <path class="cls-1" d="M920.75,91.74c-11.14-10.91-24.13-19.1-38.98-24.6-14.85-5.49-30.86-8.24-48.03-8.24-25.37,0-47.45,5.65-66.25,16.94-18.8,11.29-33.34,27-43.62,47.11-10.29,20.11-15.43,43.47-15.43,70.08s5.14,51.09,15.43,71.12c10.29,20.03,25.1,35.47,44.44,46.29,19.34,10.83,42.31,16.24,68.92,16.24,21.35,0,40.14-3.29,56.39-9.86,16.24-6.57,29.51-15.78,39.8-27.61,10.29-11.83,17.06-25.72,20.3-41.65l-66.37-4.41c-2.32,6.34-5.84,11.76-10.56,16.24-4.72,4.49-10.33,7.89-16.82,10.21-6.5,2.32-13.77,3.48-21.81,3.48-11.6,0-21.85-2.67-30.75-8.01-8.9-5.34-15.82-12.99-20.77-22.97-4.44-8.95-6.78-19.65-7.24-31.91h176.63v-19.49c0-22.12-3.1-41.42-9.28-57.9-6.19-16.48-14.85-30.17-25.99-41.07ZM804.38,120.63c8.12-5.41,18.06-8.12,29.82-8.12s21.62,2.67,29.59,8.01c7.97,5.34,13.96,12.88,17.98,22.62,2.78,6.75,4.54,14.36,5.39,22.74h-107.55c.81-8.52,2.84-16.25,6.09-23.2,4.33-9.28,10.56-16.63,18.68-22.04Z"/>
  <path class="cls-1" d="M1182.6,91.74c-11.14-10.91-24.13-19.1-38.98-24.6-14.85-5.49-30.86-8.24-48.03-8.24-25.37,0-47.45,5.65-66.25,16.94-18.8,11.29-33.34,27-43.62,47.11-10.29,20.11-15.43,43.47-15.43,70.08s5.14,51.09,15.43,71.12c10.29,20.03,25.1,35.47,44.44,46.29,19.34,10.83,42.31,16.24,68.92,16.24,21.35,0,40.14-3.29,56.39-9.86,16.24-6.57,29.51-15.78,39.8-27.61,10.29-11.83,17.06-25.72,20.3-41.65l-66.37-4.41c-2.32,6.34-5.84,11.76-10.56,16.24-4.72,4.49-10.33,7.89-16.82,10.21-6.5,2.32-13.77,3.48-21.81,3.48-11.6,0-21.85-2.67-30.75-8.01-8.9-5.34-15.82-12.99-20.77-22.97-4.44-8.95-6.78-19.65-7.24-31.91h176.63v-19.49c0-22.12-3.1-41.42-9.28-57.9-6.19-16.48-14.85-30.17-25.99-41.07ZM1066.23,120.63c8.12-5.41,18.06-8.12,29.82-8.12s21.62,2.67,29.59,8.01c7.97,5.34,13.96,12.88,17.98,22.62,2.78,6.75,4.54,14.36,5.39,22.74h-107.55c.81-8.52,2.84-16.25,6.09-23.2,4.33-9.28,10.56-16.63,18.68-22.04Z"/>
  <path class="cls-1" d="M1337.48,266.35c-3.4.46-6.5.7-9.28.7-8.51,0-14.7-2.05-18.56-6.15-3.87-4.1-5.8-10.48-5.8-19.14v-125.31h48.96v-54.3h-48.96V.43h-71.7v250.84c0,23.52,7.04,41.73,21.12,54.65,14.08,12.92,34.03,19.38,59.87,19.38,7.11,0,14.35-.54,21.7-1.62,7.35-1.08,14.97-2.78,22.86-5.11l-11.37-53.83c-2.48.62-5.42,1.16-8.82,1.62Z"/>
  <path class="cls-1" d="M1538.07,211.36c0,11.45-2.36,21.12-7.08,29.01-4.72,7.89-10.79,13.81-18.22,17.75-7.43,3.94-15.47,5.92-24.13,5.92-13.61.16-24.52-4.21-32.72-13.11-8.2-8.89-12.3-20.92-12.3-36.08V62.15h-71.7v165.22c0,20.27,3.67,37.67,11.02,52.21,7.35,14.54,17.64,25.72,30.86,33.53,13.23,7.81,28.5,11.72,45.83,11.72,19.49.15,35.97-4.45,49.43-13.81,13.46-9.36,23.13-21.54,29.01-36.55h2.78v47.11h68.92V62.15h-71.7v149.21Z"/>
  <path class="cls-1" d="M1862.11,118.07c-9.59-19.8-22.32-34.61-38.17-44.44-15.86-9.82-33.3-14.74-52.33-14.74-14.39,0-26.45,2.44-36.2,7.31-9.75,4.87-17.64,10.95-23.67,18.22-6.03,7.27-10.67,14.47-13.92,21.58h-3.25v-43.86h-70.54v356.42h71.7v-138.53h2.09c3.4,7.12,8.16,14.19,14.27,21.23,6.11,7.04,14.04,12.88,23.78,17.52s21.58,6.96,35.5,6.96c19.8,0,37.63-5.11,53.49-15.32,15.86-10.21,28.43-25.25,37.71-45.13,9.28-19.88,13.92-44.21,13.92-72.98s-4.8-54.45-14.39-74.26ZM1806.18,231.89c-4.18,11.53-10.29,20.54-18.33,27.03-8.05,6.5-17.95,9.75-29.7,9.75s-21.23-3.21-29.35-9.63c-8.12-6.42-14.35-15.35-18.68-26.8-4.33-11.45-6.5-24.83-6.5-40.14s2.13-28.89,6.38-40.26c4.25-11.37,10.44-20.19,18.56-26.45,8.12-6.27,17.98-9.4,29.59-9.4s21.89,3.25,29.93,9.75c8.04,6.5,14.12,15.43,18.22,26.8,4.1,11.37,6.15,24.56,6.15,39.56s-2.09,28.27-6.27,39.8Z"/>
  <g>
    <path class="cls-1" d="M128.23,54.74C62.67,61.28,9.92,114.67,4.08,180.31c-2.3,25.63,2.4,49.94,12.35,71.32,2.57,5.51,3.09,11.75,1.51,17.64-3.4,12.71-9.45,35.26-13.4,50.08-1.75,6.45,4.17,12.35,10.64,10.6l49.31-13.21c6.02-1.61,12.39-1.03,18,1.68,21.48,10.33,46,15.37,71.92,13.19,66.24-5.56,120.27-58.81,126.53-124.99,8.29-87.69-64.94-160.64-152.71-151.87ZM142.44,293.29c-55.35,0-100.23-44.88-100.23-100.23s44.88-100.23,100.23-100.23,100.23,44.88,100.23,100.23-44.88,100.23-100.23,100.23Z"/>
    <g>
      <g>
        <g id="_Radial_Repeat_" data-name="&amp;lt;Radial Repeat&amp;gt;">
          <rect class="cls-1" x="138.65" y="261.81" width="8.1" height="18.89" rx="4.05" ry="4.05"/>
        </g>
        <g id="_Radial_Repeat_-2" data-name="&amp;lt;Radial Repeat&amp;gt;">
          <rect class="cls-1" x="94.94" y="256.95" width="18.89" height="8.1" rx="4.05" ry="4.05" transform="translate(-173.85 220.97) rotate(-60.01)"/>
        </g>
        <g id="_Radial_Repeat_-3" data-name="&amp;lt;Radial Repeat&amp;gt;">
          <rect class="cls-1" x="66.88" y="228.92" width="18.89" height="8.1" rx="4.05" ry="4.05" transform="translate(-106.3 69.42) rotate(-30.01)"/>
        </g>
        <g id="_Radial_Repeat_-4" data-name="&amp;lt;Radial Repeat&amp;gt;">
          <rect class="cls-1" x="56.61" y="190.61" width="18.89" height="8.1" rx="4.05" ry="4.05"/>
        </g>
        <g id="_Radial_Repeat_-5" data-name="&amp;lt;Radial Repeat&amp;gt;">
          <rect class="cls-1" x="72.26" y="146.9" width="8.1" height="18.89" rx="4.05" ry="4.05" transform="translate(-97.24 144.3) rotate(-60.01)"/>
        </g>
        <g id="_Radial_Repeat_-6" data-name="&amp;lt;Radial Repeat&amp;gt;">
          <rect class="cls-1" x="100.3" y="118.84" width="8.1" height="18.89" rx="4.05" ry="4.05" transform="translate(-50.18 69.4) rotate(-30.01)"/>
        </g>
        <g id="_Radial_Repeat_-7" data-name="&amp;lt;Radial Repeat&amp;gt;">
          <rect class="cls-1" x="138.61" y="108.57" width="8.1" height="18.89" rx="4.05" ry="4.05"/>
        </g>
        <g id="_Radial_Repeat_-8" data-name="&amp;lt;Radial Repeat&amp;gt;">
          <rect class="cls-1" x="171.52" y="124.22" width="18.89" height="8.1" rx="4.05" ry="4.05" transform="translate(-20.58 220.91) rotate(-60.01)"/>
        </g>
        <g id="_Radial_Repeat_-9" data-name="&amp;lt;Radial Repeat&amp;gt;">
          <rect class="cls-1" x="199.58" y="152.26" width="18.89" height="8.1" rx="4.05" ry="4.05" transform="translate(-50.16 125.52) rotate(-30.01)"/>
        </g>
        <g id="_Radial_Repeat_-10" data-name="&amp;lt;Radial Repeat&amp;gt;">
          <rect class="cls-1" x="209.85" y="190.57" width="18.89" height="8.1" rx="4.05" ry="4.05"/>
        </g>
        <g id="_Radial_Repeat_-11" data-name="&amp;lt;Radial Repeat&amp;gt;">
          <rect class="cls-1" x="204.99" y="223.49" width="8.1" height="18.89" rx="4.05" ry="4.05" transform="translate(-97.19 297.57) rotate(-60.01)"/>
        </g>
        <g id="_Radial_Repeat_-12" data-name="&amp;lt;Radial Repeat&amp;gt;">
          <rect class="cls-1" x="176.95" y="251.54" width="8.1" height="18.89" rx="4.05" ry="4.05" transform="translate(-106.28 125.54) rotate(-30.01)"/>
        </g>
      </g>
      <rect class="cls-1" x="138.62" y="133.83" width="8.11" height="63.32" rx="4.05" ry="4.05"/>
      <path class="cls-1" d="M139.49,191.64h0c1.15-1.92,3.71-2.5,5.73-1.3l38.09,22.73c2.02,1.2,2.72,3.74,1.58,5.66h0c-1.15,1.92-3.71,2.5-5.73,1.3l-38.09-22.73c-2.02-1.2-2.72-3.74-1.58-5.66Z"/>
    </g>
  </g>
</svg>