<?xml version="1.0" encoding="UTF-8"?>
<svg id="Layer_1" data-name="Layer 1" xmlns="http://www.w3.org/2000/svg" viewBox="0 0 343 374">
  <defs>
    <style>
      .cls-1 {
        fill: #0040b4;
        stroke-width: 0px;
      }
    </style>
  </defs>
  <path class="cls-1" d="M277.86,44h-25.18c-1.2-22.25-19.69-40-42.24-40h-79.4c-22.55,0-41.04,17.75-42.24,40h-25.18c-14.85,0-26.89,12.04-26.89,26.89v6.67c0,3.56,2.89,6.45,6.45,6.45h255.11c3.56,0,6.45-2.89,6.45-6.45v-6.67c0-14.85-12.04-26.89-26.89-26.89ZM131.05,21h79.4c13.17,0,24.02,10.12,25.19,23H105.86c1.17-12.88,12.02-23,25.19-23Z"/>
  <path class="cls-1" d="M280.48,97H61.02c-7.16,0-12.82,6.09-12.3,13.23l17.3,236.1c.98,13.34,12.09,23.67,25.47,23.67h158.53c13.38,0,24.49-10.33,25.47-23.67l17.3-236.1c.52-7.15-5.13-13.23-12.3-13.23ZM109.64,324c-4.69.1-8.58-3.62-8.68-8.32l-3.72-173c-.1-4.69,3.62-8.58,8.32-8.68h0c4.69-.1,8.58,3.62,8.68,8.32l3.72,173c.1,4.69-3.62,8.58-8.32,8.68ZM179.48,315.5c0,4.69-3.81,8.5-8.5,8.5s-8.5-3.81-8.5-8.5v-176.43c0-4.69,3.81-8.5,8.5-8.5s8.5,3.81,8.5,8.5v176.43ZM240.24,315.68c-.1,4.69-3.99,8.42-8.68,8.32h0c-4.69-.1-8.42-3.99-8.32-8.68l3.72-173c.1-4.69,3.99-8.42,8.68-8.32,4.69.1,8.42,3.99,8.32,8.68l-3.72,173Z"/>
</svg>