<?xml version="1.0" encoding="UTF-8"?>
<svg id="Layer_1" data-name="Layer 1" xmlns="http://www.w3.org/2000/svg" viewBox="0 0 343 374">
  <defs>
    <style>
      .cls-1 {
        fill: #0040b4;
        stroke-width: 0px;
      }
    </style>
  </defs>
  <g>
    <path class="cls-1" d="M218.75,49.07c-.72-.72-1.88-.72-2.59,0L41.38,223.84l.14.14-20.72,96.11c-.28,1.3.88,2.46,2.18,2.18l96.11-20.72.07.07,174.77-174.77c.72-.72.72-1.88,0-2.59l-75.19-75.19ZM67.8,295.41c-.9.19-1.8-.31-2.11-1.18-1.25-3.55-3.49-7.14-6.63-10.28-3.13-3.13-6.71-5.36-10.24-6.62-.86-.3-1.35-1.21-1.16-2.1l7.29-33.82c.31-1.42,2.06-1.94,3.09-.91l44.52,44.52c1.03,1.03.51,2.78-.91,3.09l-33.85,7.3Z"/>
    <path class="cls-1" d="M326.51,57.84l-41.36-41.36c-10.06-10.06-26.37-10.06-36.43,0l-13.72,13.72c-.72.72-.72,1.88,0,2.59l75.19,75.19c.72.72,1.88.72,2.59,0l13.72-13.72c10.06-10.06,10.06-26.37,0-36.43Z"/>
  </g>
  <rect class="cls-1" x="6" y="333" width="305" height="24" rx="12" ry="12"/>
</svg>